<svg width="35" height="35" viewBox="0 0 35 35" fill="none" xmlns="http://www.w3.org/2000/svg">
<rect width="35" height="35"/>
<path d="M14.6317 18.6316H18.4212C18.7562 18.6316 19.0775 18.4985 19.3144 18.2616C19.5513 18.0247 19.6843 17.7034 19.6843 17.3684C19.6843 17.0334 19.5513 16.7121 19.3144 16.4752C19.0775 16.2383 18.7562 16.1053 18.4212 16.1053H14.6317C14.2967 16.1053 13.9754 16.2383 13.7385 16.4752C13.5016 16.7121 13.3685 17.0334 13.3685 17.3684C13.3685 17.7034 13.5016 18.0247 13.7385 18.2616C13.9754 18.4985 14.2967 18.6316 14.6317 18.6316ZM29.7896 6H12.1054C11.1004 6 10.1365 6.39925 9.42583 7.10991C8.71517 7.82058 8.31592 8.78444 8.31592 9.78947V21.1579C8.31592 22.1629 8.71517 23.1268 9.42583 23.8375C10.1365 24.5481 11.1004 24.9474 12.1054 24.9474H29.7896C30.7946 24.9474 31.7585 24.5481 32.4692 23.8375C33.1798 23.1268 33.5791 22.1629 33.5791 21.1579V9.78947C33.5791 8.78444 33.1798 7.82058 32.4692 7.10991C31.7585 6.39925 30.7946 6 29.7896 6ZM31.0528 21.1579C31.0528 21.4929 30.9197 21.8142 30.6828 22.0511C30.4459 22.288 30.1246 22.4211 29.7896 22.4211H12.1054C11.7704 22.4211 11.4491 22.288 11.2122 22.0511C10.9753 21.8142 10.8422 21.4929 10.8422 21.1579V13.5789H31.0528V21.1579ZM31.0528 11.0526H10.8422V9.78947C10.8422 9.45446 10.9753 9.13317 11.2122 8.89629C11.4491 8.6594 11.7704 8.52632 12.1054 8.52632H29.7896C30.1246 8.52632 30.4459 8.6594 30.6828 8.89629C30.9197 9.13317 31.0528 9.45446 31.0528 9.78947V11.0526Z" fill="black"/>
<path fill-rule="evenodd" clip-rule="evenodd" d="M8.31592 13.58V11H5.78947C4.78444 11 3.82058 11.3992 3.10991 12.1099C2.39925 12.8206 2 13.7844 2 14.7895V26.1579C2 27.1629 2.39925 28.1268 3.10991 28.8375C3.82058 29.5481 4.78444 29.9474 5.78947 29.9474H23.4737C24.4787 29.9474 25.4426 29.5481 26.1532 28.8375C26.8639 28.1268 27.2632 27.1629 27.2632 26.1579V24.8948H12.1054C11.1004 24.8948 10.1365 24.4955 9.42583 23.7848C8.77864 23.1377 8.38972 22.2805 8.32541 21.3734C8.37793 22.3002 8.76932 23.1785 9.42925 23.8384C10.1399 24.5491 11.1038 24.9483 12.1088 24.9483H24.7403V26.4747C24.7403 27.027 24.2926 27.4747 23.7403 27.4747H5.52979C4.9775 27.4747 4.52979 27.027 4.52979 26.4747V14.58C4.52979 14.0277 4.9775 13.58 5.52979 13.58H8.31592ZM12.1054 22.3684L27.2632 22.3684H12.1032L12.1054 22.3684Z" fill="black"/>
</svg>
